<svg xmlns="http://www.w3.org/2000/svg" xmlns:xlink="http://www.w3.org/1999/xlink" viewBox="0 0 326.98 327.4"><defs><style>.cls-1,.cls-2,.cls-3,.cls-4,.cls-5{stroke:#fff;stroke-miterlimit:10;}.cls-1{fill:url(#linear-gradient);}.cls-2{fill:url(#linear-gradient-2);}.cls-3{fill:url(#New_Gradient_Swatch_3);}.cls-4{fill:url(#linear-gradient-3);}.cls-5{stroke-width:2px;fill:url(#linear-gradient-4);}.cls-6{fill:#e83d00;}.cls-7{fill:#fff;}.cls-8{fill:url(#New_Gradient_Swatch_3-2);}.cls-9{fill:url(#linear-gradient-5);}.cls-10{fill:url(#linear-gradient-6);}.cls-11{fill:url(#linear-gradient-7);}.cls-12{fill:url(#linear-gradient-8);}</style><linearGradient id="linear-gradient" x1="224.5" y1="123.1" x2="326.48" y2="123.1" gradientUnits="userSpaceOnUse"><stop offset="0" stop-color="#ec85b3"/><stop offset="1" stop-color="#b11f69"/></linearGradient><linearGradient id="linear-gradient-2" x1="0.5" y1="123.1" x2="102.48" y2="123.1" gradientUnits="userSpaceOnUse"><stop offset="0" stop-color="#a388bd"/><stop offset="1" stop-color="#511b6c"/></linearGradient><linearGradient id="New_Gradient_Swatch_3" x1="67.89" y1="40.14" x2="259.09" y2="40.14" gradientUnits="userSpaceOnUse"><stop offset="0" stop-color="#e83e37"/><stop offset="1" stop-color="#f4a43a"/></linearGradient><linearGradient id="linear-gradient-3" x1="163.49" y1="261.1" x2="318.17" y2="261.1" gradientUnits="userSpaceOnUse"><stop offset="0" stop-color="#b9d371"/><stop offset="1" stop-color="#8ba336"/></linearGradient><linearGradient id="linear-gradient-4" x1="8.81" y1="261.1" x2="163.49" y2="261.1" gradientUnits="userSpaceOnUse"><stop offset="0" stop-color="#52bbbf"/><stop offset="0.19" stop-color="#4ab9be"/><stop offset="0.49" stop-color="#33b2bc"/><stop offset="0.87" stop-color="#0ea7b8"/><stop offset="1" stop-color="#00a3b6"/></linearGradient><linearGradient id="New_Gradient_Swatch_3-2" x1="110.43" y1="76.61" x2="216.95" y2="76.61" xlink:href="#New_Gradient_Swatch_3"/><linearGradient id="linear-gradient-5" x1="220.3" y1="137.96" x2="261.74" y2="137.96" xlink:href="#linear-gradient"/><linearGradient id="linear-gradient-6" x1="168.86" y1="228.42" x2="255.03" y2="228.42" xlink:href="#linear-gradient-3"/><linearGradient id="linear-gradient-7" x1="72.35" y1="228.42" x2="158.52" y2="228.42" gradientUnits="userSpaceOnUse"><stop offset="0" stop-color="#00aac2"/><stop offset="1" stop-color="#00727d"/></linearGradient><linearGradient id="linear-gradient-8" x1="65.64" y1="137.96" x2="107.08" y2="137.96" xlink:href="#linear-gradient-2"/></defs><title>circle-diagram</title><g id="Слой_2" data-name="Слой 2"><g id="Design"><path class="cls-1" d="M259.09,32.18,224.5,79.78c37,26.94,51.79,72.36,37.63,115.92l0,.1L318.17,214C340.38,145.67,317.22,74.42,259.09,32.18Z"/><path class="cls-2" d="M64.86,195.7c-14.15-43.56.59-89,37.62-115.92L67.89,32.18C9.76,74.42-13.39,145.67,8.81,214L64.89,195.8Z"/><path class="cls-3" d="M102.54,79.75c37.07-26.94,84.84-26.94,121.92,0l0,0,34.59-47.6C201-10.06,126-10.06,67.89,32.18l34.59,47.6Z"/><path class="cls-4" d="M262.1,195.8c-14.19,43.52-52.82,71.56-98.61,71.56h0v59c71.86,0,132.48-44,154.68-112.38Z"/><path class="cls-5" d="M64.89,195.8,8.81,214C31,282.36,91.63,326.4,163.49,326.4v-59C117.7,267.36,79.08,239.32,64.89,195.8Z"/><path class="cls-6" d="M103.61,142.83v-9.34h5.29a2.45,2.45,0,0,1,2.73,2.38A2.08,2.08,0,0,1,110,138a2.24,2.24,0,0,1,1.77,2.29,2.48,2.48,0,0,1-2.74,2.53Zm5.57-6.54a.77.77,0,0,0-.83-.77H106v1.56h2.33A.78.78,0,0,0,109.18,136.29Zm.18,3.67a.84.84,0,0,0-.92-.84H106v1.68h2.42A.82.82,0,0,0,109.36,140Z"/><path class="cls-6" d="M113.13,142.83v-9.34h2.41V139l3.78-5.51h2.49v9.34h-2.42v-5.77l-3.94,5.77Z"/><path class="cls-6" d="M123,138.17a4.77,4.77,0,0,1,5.06-4.83,4.3,4.3,0,0,1,4.07,2.5l-2.07,1a2.24,2.24,0,0,0-2-1.35,2.7,2.7,0,0,0,0,5.4,2.24,2.24,0,0,0,2-1.36l2.07,1a4.33,4.33,0,0,1-4.07,2.51A4.78,4.78,0,0,1,123,138.17Z"/><path class="cls-6" d="M140.29,142.83h-7.12v-9.34h2.41v7.24h3.88v-7.24h2.41v7.24h.84v3.83h-2.42Z"/><path class="cls-6" d="M143.74,142.83v-9.34h6.85v2.1h-4.44v1.46h4.35v2.1h-4.35v1.58h4.44v2.1Z"/><path class="cls-6" d="M152,142.83v-9.34h4.68a3.11,3.11,0,1,1,0,6.21H154.4v3.13Zm5.48-6.23a1,1,0,0,0-1.12-1H154.4v2h1.95A1,1,0,0,0,157.47,136.6Z"/><path class="cls-6" d="M166.33,142.83l-.46-1.34h-3.69l-.46,1.34H159l3.51-9.34h3l3.53,9.34Zm-2.31-7-1.19,3.52h2.38Z"/><path class="cls-6" d="M169.22,140.87c.87,0,1.43-.52,1.7-2.64l.56-4.74h7v9.34H176v-7.24h-2.38l-.34,2.82c-.45,3.78-2,4.59-4.09,4.59Z"/><path class="cls-6" d="M182.52,133.49v3.14h2.27a3.1,3.1,0,1,1,0,6.2h-4.67v-9.34Zm0,5.24v2h1.95a1,1,0,1,0,0-2Z"/><path class="cls-6" d="M195.41,142.83v-3.75h-3.88v3.75h-2.41v-9.34h2.41V137h3.88v-3.49h2.41v9.34Z"/><path class="cls-6" d="M205.84,142.83l-.47-1.34h-3.68l-.46,1.34H198.5l3.51-9.34h3l3.53,9.34Zm-2.31-7-1.2,3.52h2.39Z"/><path class="cls-6" d="M208.86,142.83l1.9-3.43a2.82,2.82,0,0,1-1.88-2.8,3,3,0,0,1,3.27-3.11h4.68v9.34H214.4V139.7h-1.23l-1.55,3.13Zm5.54-5.24v-2h-1.9a1,1,0,0,0-1.15,1,1,1,0,0,0,1.15,1Z"/><path class="cls-6" d="M137.68,160.66v-9.35h6.85v2.11h-4.44v7.24Z"/><path class="cls-6" d="M145.83,160.66v-9.35h2.41v5.51l3.78-5.51h2.49v9.35h-2.42v-5.77l-3.94,5.77Z"/><path class="cls-6" d="M162.48,160.66v-7.24H158.6v7.24h-2.41v-9.35h8.7v9.35Z"/><path class="cls-6" d="M166.56,160.66v-9.35h6.85v2.11H169v1.45h4.34V157H169v1.59h4.44v2.1Z"/><path class="cls-6" d="M174.81,160.66v-9.35h4.68a3.11,3.11,0,1,1,0,6.21h-2.27v3.14Zm5.48-6.24a1,1,0,0,0-1.12-1h-1.95v2h1.95A1,1,0,0,0,180.29,154.42Z"/><path class="cls-6" d="M183.39,156.78V155h3.36v1.81Z"/><path class="cls-6" d="M90.18,171.92c0,1.07.59,1.43,1.5,1.43a4.34,4.34,0,0,0,1.57-.26v-4h2.41v9.34H93.25V175.2a7.84,7.84,0,0,1-1.91.26,3.23,3.23,0,0,1-3.6-3.54v-2.78h2.44Z"/><path class="cls-6" d="M96.41,177.93l1-1.87a2.09,2.09,0,0,0,1.21.46,1.16,1.16,0,0,0,1.15-.7l-3.38-6.68h2.72l2,4.37,2-4.37h2.71L102,176.65a3.39,3.39,0,0,1-3.25,2A3.84,3.84,0,0,1,96.41,177.93Z"/><path class="cls-6" d="M106.5,178.48v-9.34h5.3a2.45,2.45,0,0,1,2.73,2.38,2.08,2.08,0,0,1-1.6,2.14,2.24,2.24,0,0,1,1.78,2.29,2.48,2.48,0,0,1-2.74,2.53Zm5.58-6.54a.77.77,0,0,0-.83-.77h-2.34v1.55h2.34A.77.77,0,0,0,112.08,171.94Zm.18,3.67a.84.84,0,0,0-.92-.84h-2.43v1.68h2.43A.83.83,0,0,0,112.26,175.61Z"/><path class="cls-6" d="M115.55,173.82a4.77,4.77,0,0,1,5.06-4.84,4.31,4.31,0,0,1,4.07,2.51l-2.07,1a2.25,2.25,0,0,0-2-1.36,2.71,2.71,0,0,0,0,5.41,2.25,2.25,0,0,0,2-1.36l2.07,1a4.33,4.33,0,0,1-4.07,2.51A4.77,4.77,0,0,1,115.55,173.82Z"/><path class="cls-6" d="M127.8,178.48v-7.24h-2.62v-2.1h7.63v2.1h-2.6v7.24Z"/><path class="cls-6" d="M134,178.48v-9.34h5.29a2.46,2.46,0,0,1,2.74,2.38,2.09,2.09,0,0,1-1.6,2.14,2.25,2.25,0,0,1,1.78,2.29,2.49,2.49,0,0,1-2.75,2.53Zm5.57-6.54a.76.76,0,0,0-.82-.77h-2.34v1.55h2.34A.76.76,0,0,0,139.53,171.94Zm.19,3.67a.85.85,0,0,0-.93-.84h-2.42v1.68h2.42A.83.83,0,0,0,139.72,175.61Z"/><path class="cls-6" d="M143.48,178.48v-9.34h2.41v5.5l3.78-5.5h2.49v9.34h-2.42v-5.77l-3.94,5.77Z"/><path class="cls-6" d="M155.92,178.48v-7.24h-2.61v-2.1h7.63v2.1h-2.61v7.24Z"/><path class="cls-6" d="M162.08,178.48v-9.34h6.85v2.1h-4.44v1.46h4.34v2.1h-4.34v1.58h4.44v2.1Z"/><path class="cls-6" d="M169.81,176.52c.87,0,1.43-.52,1.7-2.65l.56-4.73h7v9.34h-2.41v-7.24h-2.38l-.34,2.81c-.45,3.79-2,4.6-4.09,4.6Z"/><path class="cls-6" d="M183.11,169.14v3.14h2.27a3.1,3.1,0,1,1,0,6.2H180.7v-9.34Zm0,5.24v2h1.95a1,1,0,1,0,0-2Z"/><path class="cls-6" d="M196,178.48v-3.75h-3.88v3.75h-2.41v-9.34h2.41v3.49H196v-3.49h2.4v9.34Z"/><path class="cls-6" d="M199.6,173.82a5,5,0,1,1,5,4.83A4.76,4.76,0,0,1,199.6,173.82Zm7.54,0a2.55,2.55,0,1,0-2.54,2.7A2.53,2.53,0,0,0,207.14,173.82Z"/><path class="cls-6" d="M210.33,173.82a4.77,4.77,0,0,1,5-4.84,4.32,4.32,0,0,1,4.08,2.51l-2.07,1a2.26,2.26,0,0,0-2-1.36,2.71,2.71,0,0,0,0,5.41,2.26,2.26,0,0,0,2-1.36l2.07,1a4.33,4.33,0,0,1-4.08,2.51A4.77,4.77,0,0,1,210.33,173.82Z"/><path class="cls-6" d="M222.58,178.48v-7.24H220v-2.1h7.63v2.1H225v7.24Z"/><path class="cls-6" d="M231.15,169.14v3.14h2.27a3.1,3.1,0,1,1,0,6.2h-4.68v-9.34Zm0,5.24v2h1.94a1,1,0,1,0,0-2Z"/><path class="cls-6" d="M148.6,197.83a10.67,10.67,0,0,1,0-12.38l.63.47a11.9,11.9,0,0,0,0,11.42Z"/><path class="cls-6" d="M150.57,196.3V187h4.16a2.36,2.36,0,0,1,2.62,2.38,2.14,2.14,0,0,1-1.64,2.15,2.33,2.33,0,0,1,1.82,2.29,2.43,2.43,0,0,1-2.7,2.52Zm5.57-6.79a1.47,1.47,0,0,0-1.61-1.51h-2.8v3h2.8A1.45,1.45,0,0,0,156.14,189.51Zm.19,4.15a1.59,1.59,0,0,0-1.74-1.61h-2.86v3.22h2.86A1.55,1.55,0,0,0,156.33,193.66Z"/><path class="cls-6" d="M159.37,196.3V187h6.13v1h-5v8.3Z"/><path class="cls-6" d="M168,189.4a1.93,1.93,0,0,0,2.17,2.16,7.15,7.15,0,0,0,2.16-.33V187h1.16v9.34h-1.16v-4a8.35,8.35,0,0,1-2.26.32,2.93,2.93,0,0,1-3.24-3.21V187H168Z"/><path class="cls-6" d="M174.77,197.34a11.82,11.82,0,0,0,0-11.42l.63-.47a10.62,10.62,0,0,1,0,12.38Z"/><path class="cls-7" d="M40.88,166.73a4.13,4.13,0,0,1-4.16-4.36,3.72,3.72,0,0,1,2-3.38l.72,1.49a2.21,2.21,0,0,0-1.2,1.9,2.67,2.67,0,0,0,5.33.05,2.2,2.2,0,0,0-1.16-1.92l.73-1.48a3.75,3.75,0,0,1,2,3.42A4.12,4.12,0,0,1,40.88,166.73Z"/><path class="cls-7" d="M43.62,158.62c.06-.82-.34-1.32-2.45-1.75l-4.1-.81.47-5.75,8.09.65-.14,1.74-6.58-.53-.2,2.46,2.72.54c3.33.66,3.85,1.92,3.72,3.57Z"/><path class="cls-7" d="M45.8,149.53l-8-1.25.26-1.7,5.18.8-4.6-4.52.27-1.75,8,1.24-.26,1.71-5.38-.84,4.78,4.66Z"/><path class="cls-7" d="M46,141.2l-.94-1.13a3.56,3.56,0,0,0,1.41-2.13c.23-1-.06-1.74-.65-1.87s-1,.36-1.3,1.55l-.35,1.61-1.49-.32L43,137.3c.21-.94.09-1.67-.49-1.8s-1.1.51-1.29,1.42a3.26,3.26,0,0,0,.35,2.33l-1.24.61a4.3,4.3,0,0,1-.58-3.44c.41-1.85,1.52-3,2.84-2.67A2,2,0,0,1,44,135.86a2,2,0,0,1,2.31-1.43c1.37.3,2,1.87,1.62,3.77A4.4,4.4,0,0,1,46,141.2Z"/><path class="cls-7" d="M48.84,133.78l-7.78-2.3.49-1.66,5,1.49-4-5.09.51-1.71,7.78,2.31-.49,1.66-5.22-1.55,4.12,5.26Z"/><path class="cls-7" d="M47.45,124.38A4.12,4.12,0,0,1,45,118.86a3.71,3.71,0,0,1,3.06-2.48l.16,1.65a2.16,2.16,0,0,0-1.78,1.37,2.67,2.67,0,0,0,5,1.88,2.21,2.21,0,0,0-.43-2.21l1.19-1.14a3.76,3.76,0,0,1,.67,3.89A4.11,4.11,0,0,1,47.45,124.38Z"/><path class="cls-7" d="M55.13,116l-6-2.72-1,2.16-1.38-.63L49.42,109l1.39.62-1,2.15,6,2.72Z"/><path class="cls-7" d="M53.35,110.1a4.24,4.24,0,1,1,5.7-1.75A4.06,4.06,0,0,1,53.35,110.1Zm3.16-5.91a2.47,2.47,0,1,0,1.19,3.44A2.46,2.46,0,0,0,56.51,104.19Z"/><path class="cls-7" d="M56.27,96a2.67,2.67,0,0,1-2.05,1.23l-.12-.88a1.77,1.77,0,0,0,1.56-2.45l.85-.27A2.63,2.63,0,0,1,56.27,96Zm5.2,7.64-6.84-4.37.93-1.45L60,100.64l-2.4-6,1-1.5,6.84,4.37L64.45,99l-4.58-2.92,2.5,6.18Z"/><path class="cls-7" d="M117.69,55l-2.64-6-3.51,1.53,2.63,6-1.59.69-3.23-7.44L116,46.9l3.24,7.45Z"/><path class="cls-7" d="M120.65,53.83l-2.72-7.64,3.58-1.28a2.62,2.62,0,1,1,1.75,4.93l-2,.7,1,2.71Zm2.64-6.77a1.09,1.09,0,0,0-1.49-.64l-1.73.62.73,2.06,1.73-.61A1.1,1.1,0,0,0,123.29,47.06Z"/><path class="cls-7" d="M126.22,47.55a4.24,4.24,0,1,1,5.21,2.91A4.08,4.08,0,0,1,126.22,47.55Zm6.47-1.79A2.48,2.48,0,1,0,131,49,2.47,2.47,0,0,0,132.69,45.76Z"/><path class="cls-7" d="M142,47.89l-.65-3.34-3.77.74.66,3.34-1.69.34L135,41l1.69-.33.62,3.12,3.76-.74-.62-3.12,1.71-.34,1.57,8Z"/><path class="cls-7" d="M145.12,47.33l-1-8.07,1.72-.21.63,5.22,3.1-5.67,1.77-.21,1,8.07-1.71.2-.66-5.4-3.19,5.87Z"/><path class="cls-7" d="M160.08,46.05l-6.3.28-.36-8.11,1.73-.08.29,6.59,3.83-.17L159,38l1.74-.08.29,6.59.73,0,.14,3-1.73.07Z"/><path class="cls-7" d="M168.28,46.16l-.46-1.39-3.48-.1L163.79,46l-2-.05,3.38-8,2.16.06,2.9,8.21Zm-2.06-6.45-1.37,3.45,2.54.08Z"/><path class="cls-7" d="M170.87,46.3l.75-8.08,5.72.52-.14,1.52-4-.37L173,41.6,177,42l-.14,1.51-3.92-.36-.16,1.83,4,.37-.14,1.52Z"/><path class="cls-7" d="M184.77,48.1l.93-5.61-3.19,5.23-.74-.12-1.32-6-.94,5.61-1.7-.28,1.33-8,2.39.4,1.14,5.16L185.42,40l2.4.4-1.33,8Z"/><path class="cls-7" d="M188.51,44.68a4.24,4.24,0,1,1,3.08,5.11A4.07,4.07,0,0,1,188.51,44.68Zm6.5,1.64a2.47,2.47,0,1,0-3,2A2.47,2.47,0,0,0,195,46.32Z"/><path class="cls-7" d="M197.67,47a4.13,4.13,0,0,1,5.42-2.63,3.72,3.72,0,0,1,2.6,3l-1.64.23a2.17,2.17,0,0,0-1.44-1.72,2.67,2.67,0,0,0-1.67,5.06,2.2,2.2,0,0,0,2.18-.52l1.18,1.14a3.73,3.73,0,0,1-3.85.83A4.12,4.12,0,0,1,197.67,47Z"/><path class="cls-7" d="M206.31,54.36l2.47-6.11-2.2-.89.57-1.41,6,2.42-.57,1.41-2.19-.88L207.92,55Z"/><path class="cls-7" d="M216.05,49.71l-1.24,2.61,1.87.89a2.62,2.62,0,1,1-2.26,4.72L211,56.29,214.49,49Zm-1.89,4-.95,2,1.66.79a1.1,1.1,0,1,0,.94-2Z"/><path class="cls-7" d="M26.09,178.33l-5.64.75,5.94,1.52.1.75-5.34,3,5.64-.75.23,1.71-8,1.07-.32-2.4,4.6-2.6-5.12-1.31-.32-2.42,8.05-1.06Z"/><path class="cls-7" d="M25.75,175.14l-8.1.5-.11-1.72,5.24-.33-5.48-3.43-.11-1.77,8.11-.51.11,1.73L20,170l5.68,3.52Z"/><path class="cls-7" d="M25.26,161.56,22,164l.76.63h2.5v1.73l-8.12,0v-1.73h3.63l-3.63-2.87v-2.13L21,162.88l4.3-3.46Z"/><path class="cls-7" d="M25.3,158.75l-8.11-.43.2-3.79a2.62,2.62,0,1,1,5.23.27l-.11,2.07,2.88.15Zm-5.24-5a1.09,1.09,0,0,0-1.16,1.13l-.1,1.83,2.19.12.1-1.83A1.1,1.1,0,0,0,20.06,153.71Z"/><path class="cls-7" d="M21.64,151.22a4.24,4.24,0,0,1,1-8.43,4.24,4.24,0,0,1-1,8.43Zm.77-6.66a2.47,2.47,0,1,0-.57,4.9,2.47,2.47,0,1,0,.57-4.9Z"/><path class="cls-7" d="M26.82,142.16l-8-1.42.75-4.2A2.1,2.1,0,0,1,22,134.6a1.82,1.82,0,0,1,1.59,1.7,2,2,0,0,1,2.23-1.18,2.13,2.13,0,0,1,1.74,2.71ZM22,136.39a.87.87,0,0,0-1,.78l-.38,2.13,1.73.31.38-2.13A.86.86,0,0,0,22,136.39Zm3.28.42a1,1,0,0,0-1.11.87l-.39,2.19,1.85.33L26,138A.92.92,0,0,0,25.3,136.81Z"/><path class="cls-7" d="M24.21,133.74a4.24,4.24,0,0,1,2-8.24,4.24,4.24,0,0,1-2,8.24Zm1.6-6.52A2.47,2.47,0,1,0,24.64,132a2.47,2.47,0,1,0,1.17-4.79Z"/><path class="cls-7" d="M26.49,124.58a4.12,4.12,0,0,1-2.73-5.37,3.76,3.76,0,0,1,2.91-2.66l.26,1.64a2.2,2.2,0,0,0-1.7,1.47,2.67,2.67,0,0,0,5.09,1.59,2.18,2.18,0,0,0-.56-2.18l1.13-1.2a3.75,3.75,0,0,1,.9,3.84A4.13,4.13,0,0,1,26.49,124.58Z"/><path class="cls-7" d="M35,112.38,28.78,110l-1.37,3.58L33.58,116,33,117.58l-7.58-2.91,2.6-6.82,7.59,2.9Z"/><path class="cls-7" d="M38.46,104.29,37,104.18l-1.45,3.16,1,1-.81,1.79L29.7,104l.9-2,8.68.52Zm-6.74-.61,2.66,2.6,1-2.3Z"/><path class="cls-7" d="M38.12,101.72c.38-.72.22-1.34-1.55-2.58l-3.44-2.37,2.71-5.09L43,95.5,42.18,97l-5.82-3.1L35.2,96.11l2.28,1.58c2.79,1.92,2.77,3.29,2,4.75Z"/><path class="cls-7" d="M43.77,94.2,36.83,90l3-4.91,1.3.79L39,89.29l1.47.9,2-3.36,1.3.79L41.8,91l1.57,1,2.09-3.44,1.3.8Z"/><path class="cls-7" d="M50.58,83.69l-2.8-1.94L45.6,84.9l2.8,1.94-1,1.42-6.67-4.63,1-1.42L44.34,84l2.19-3.15-2.62-1.82,1-1.43,6.68,4.63Z"/><path class="cls-7" d="M52.44,81.09l-6.36-5,1.07-1.35L51.26,78l-1.77-6.21,1.11-1.39,6.36,5-1.08,1.36-4.26-3.38,1.86,6.41Z"/><path class="cls-7" d="M57.93,74.27l-6.06-5.4,3.82-4.29,1.14,1-2.67,3,1.28,1.14,2.61-2.93,1.14,1-2.62,2.93L58,72l2.67-3,1.13,1Z"/><path class="cls-7" d="M135.65,28.9l-3.06-2.68-.47.86.51,2.45-1.7.35-1.64-7.95,1.69-.36.73,3.56L133.79,21l2.09-.43L133.49,25l4.25,3.52Z"/><path class="cls-7" d="M138.39,28.36l-1.18-8,1.71-.25.76,5.19,3-5.74,1.76-.26,1.17,8-1.71.25-.79-5.38-3,5.94Z"/><path class="cls-7" d="M156.8,18.26l.57,8.1L147,27.09l-.58-8.1,1.73-.12.46,6.58,2.58-.18-.47-6.58,1.74-.13.47,6.59,2.56-.18-.47-6.59Z"/><path class="cls-7" d="M158.83,26.4V18.28h5.75V19.8h-4v1.72h3.93V23h-3.93v1.84h4V26.4Z"/><path class="cls-7" d="M167.68,20.67a1.29,1.29,0,0,0,1.4,1.55,4.23,4.23,0,0,0,1.56-.19l.18-3.47,1.73.09-.43,8.1-1.73-.09.17-3.11a6.3,6.3,0,0,1-1.77.18,2.71,2.71,0,0,1-2.85-3.15l.12-2.28,1.73.1Z"/><path class="cls-7" d="M179.12,27.48l.38-3.39-3.81-.42-.38,3.38-1.72-.19.91-8.07,1.72.19-.36,3.17,3.81.43.36-3.17,1.73.2-.91,8.07Z"/><path class="cls-7" d="M187.81,28.88l-.25-1.45-3.43-.6-.74,1.26-1.94-.34L186,20.3l2.14.38,1.66,8.54Zm-1.09-6.69-1.86,3.22,2.5.44Z"/><path class="cls-7" d="M190.06,29.3l2.49-2.59A2.33,2.33,0,0,1,191.38,24,2.53,2.53,0,0,1,194.64,22l3.7.88-1.88,7.9-1.68-.4.67-2.81-1.22-.29L192,29.76Zm5.74-3.17.5-2.13-1.76-.42a1.1,1.1,0,1,0-.51,2.13Z"/><path class="cls-7" d="M191.37,306.89a4.12,4.12,0,0,1,3.25-5.07,3.69,3.69,0,0,1,3.76,1.16l-1.28,1a2.19,2.19,0,0,0-2.13-.72,2.67,2.67,0,0,0,1.21,5.19,2.18,2.18,0,0,0,1.6-1.58l1.61.36a3.74,3.74,0,0,1-2.86,2.72A4.13,4.13,0,0,1,191.37,306.89Z"/><path class="cls-7" d="M203.11,308.13l-1.85-6.33-2.28.66-.43-1.46,6.22-1.81.43,1.46-2.27.66,1.85,6.34Z"/><path class="cls-7" d="M208.59,306.48l-2.67-7.67,5.43-1.89.5,1.44-3.8,1.32.57,1.62,3.71-1.29.5,1.44-3.71,1.29.6,1.74,3.79-1.32.5,1.43Z"/><path class="cls-7" d="M220.93,301.83l-1.3-3.15-3.54,1.46,1.29,3.15-1.6.66-3.08-7.51,1.59-.66,1.22,3,3.54-1.46-1.21-2.95,1.61-.66,3.09,7.51Z"/><path class="cls-7" d="M228.82,298.19l-3.62-1.86-.25,1,1.08,2.24-1.55.75L221,293l1.55-.75,1.58,3.27,1-4.52,1.92-.92-1.25,4.83,5,2.39Z"/><path class="cls-7" d="M231.9,296.66l-3.94-7.1,1.52-.84,2.54,4.59.75-6.41,1.55-.86,3.94,7.1-1.52.84-2.63-4.76-.75,6.63Z"/><path class="cls-7" d="M247.07,287.51l-3.85-1.34-.11,1,1.38,2.07-1.43,1-4.5-6.75,1.43-1,2,3,.38-4.61,1.78-1.19-.58,5,5.26,1.68Z"/><path class="cls-7" d="M249.92,285.55l-4.9-6.48,1.38-1,3.16,4.19-.15-6.46,1.41-1.07,4.89,6.48-1.37,1-3.28-4.34.19,6.67Z"/><path class="cls-7" d="M259.93,266.88l5.35,6.11-7.79,6.82-5.35-6.11,1.3-1.14,4.35,5,1.94-1.7-4.35-5,1.31-1.14,4.35,5L263,273l-4.35-5Z"/><path class="cls-7" d="M266.82,271.42l-5.75-5.73,4.06-4.06,1.07,1.07-2.83,2.84,1.21,1.22,2.78-2.79,1.08,1.07-2.78,2.79,1.3,1.3,2.84-2.85,1.08,1.08Z"/><path class="cls-7" d="M268.83,261a1.3,1.3,0,0,0,2.09-.12,4.33,4.33,0,0,0,.83-1.33l-2.59-2.33,1.15-1.28,6.05,5.41-1.16,1.29-2.32-2.08a6,6,0,0,1-1,1.49,2.71,2.71,0,0,1-4.24.25l-1.7-1.52,1.16-1.3Z"/><path class="cls-7" d="M281.23,255.33l-2.67-2.12-2.38,3,2.66,2.12-1.07,1.35-6.35-5.05,1.07-1.35,2.5,2,2.38-3-2.49-2,1.08-1.36,6.35,5.05Z"/><path class="cls-7" d="M283.59,252.24l-6.66-4.64,1-1.42,4.3,3-2.15-6.08,1-1.46,6.66,4.64-1,1.41-4.47-3.1,2.26,6.28Z"/><path class="cls-7" d="M291.42,240.37l-4.05.4.31.93,2.12,1.3-.9,1.48L282,240.24l.9-1.47,3.1,1.89-1.6-4.34,1.12-1.82,1.56,4.74,5.47-.69Z"/><path class="cls-7" d="M295.84,232.44l-1.45-.21-1.65,3.07,1,1.1-.93,1.74-5.68-6.61,1-1.91,8.64,1.08Zm-6.7-1.05,2.48,2.77,1.2-2.23Z"/><path class="cls-7" d="M212.76,289.75l-3.2-7.46,3.49-1.49a2.62,2.62,0,1,1,2.06,4.81l-1.9.81,1.13,2.65Zm2.2-6.93a1.08,1.08,0,0,0-1.52-.53l-1.69.72.86,2,1.69-.72A1.09,1.09,0,0,0,215,282.82Z"/><path class="cls-7" d="M224.17,284.52l-1-1L220,285.05l.15,1.46-1.77.87-.77-8.67,2-1,6.39,5.9Zm-4.83-4.74.41,3.69,2.27-1.12Z"/><path class="cls-7" d="M224.14,280a4.12,4.12,0,0,1,1.67-5.78,3.71,3.71,0,0,1,3.94,0l-.93,1.37a2.21,2.21,0,0,0-2.25-.08,2.67,2.67,0,0,0,2.64,4.63,2.19,2.19,0,0,0,1.08-2l1.64-.11a3.71,3.71,0,0,1-2,3.41A4.12,4.12,0,0,1,224.14,280Z"/><path class="cls-7" d="M235.56,278l-3.6-5.53-2,1.3-.83-1.28,5.43-3.53.83,1.28-2,1.28L237,277Z"/><path class="cls-7" d="M239.85,275.13l-.35-3.57a2.33,2.33,0,0,1-2.86-.89,2.53,2.53,0,0,1,.65-3.72l3.07-2.25,4.8,6.55-1.4,1-1.7-2.33-1,.74.42,3.28Zm1.31-6.41-1.3-1.77L238.4,268a1.1,1.1,0,1,0,1.29,1.77Z"/><path class="cls-7" d="M246.15,270.59l-.19-5.51-4.92-.8,1.62-1.38,4.08.8-2.12-2.48,1.33-1.13,2.11,2.48-.16-4.15,1.63-1.39,0,5,5.41,1.05-1.61,1.37-4-.88v.54l1.84,2.16-1.33,1.13-1.84-2.16-.53-.09.24,4.07Z"/><path class="cls-7" d="M255.74,262.21l-5.69-5.78,4.1-4,1.06,1.08-2.86,2.82,1.2,1.22,2.8-2.76,1.07,1.09-2.8,2.76,1.29,1.31,2.86-2.82,1.07,1.09Z"/><path class="cls-7" d="M264.72,252.86l-2.53-2.27-2.56,2.84,2.53,2.28L261,257l-6-5.43,1.16-1.29,2.37,2.14,2.56-2.85-2.37-2.13,1.16-1.3,6,5.43Z"/><path class="cls-7" d="M267.14,250.09l-6.39-5,1.06-1.36,4.13,3.23-1.81-6.19,1.1-1.4,6.39,5-1.07,1.36-4.28-3.36,1.89,6.4Z"/><path class="cls-7" d="M272.73,242.81l-6.68-4.61,3.26-4.72,1.26.86-2.28,3.31,1.41,1,2.23-3.23,1.25.86L271,239.48l1.51,1.05,2.28-3.31,1.25.87Z"/><path class="cls-8" d="M211.93,88.13l5-6.9a95.95,95.95,0,0,0-106.52,0l5,6.9C145.28,68.82,182.1,68.82,211.93,88.13Z"/><path class="cls-9" d="M225.31,87.3l-5,6.9c27.56,22.41,38.93,57.43,29.79,91.76l8.14,2.65C268.49,150.72,255.88,111.92,225.31,87.3Z"/><path class="cls-10" d="M246.89,195.79c-12.79,33.13-42.57,54.76-78,56.68v8.58c39.2-1.94,72.21-25.93,86.17-62.61Z"/><path class="cls-11" d="M80.49,195.79l-8.14,2.65c14,36.68,47,60.67,86.17,62.61v-8.58C123.06,250.55,93.28,228.92,80.49,195.79Z"/><path class="cls-12" d="M107.08,94.21l-5-6.91C71.5,111.92,58.89,150.72,69.15,188.61L77.29,186C68.15,151.63,79.52,116.61,107.08,94.21Z"/><path class="cls-7" d="M61.17,253.42a4.13,4.13,0,0,1,6,.38,3.73,3.73,0,0,1,.81,3.85L66.46,257a2.21,2.21,0,0,0-.41-2.21,2.67,2.67,0,0,0-3.95,3.58,2.18,2.18,0,0,0,2.16.63l.46,1.58A3.72,3.72,0,0,1,61,259.44,4.12,4.12,0,0,1,61.17,253.42Z"/><path class="cls-7" d="M68.64,267l4.58-4.74-2.76-2.67-4.58,4.75-1.24-1.2,5.64-5.84,5.25,5.07-5.64,5.84Z"/><path class="cls-7" d="M76,273.49l.5-1.38-2.66-2.24-1.28.72-1.51-1.27,7.63-4.19,1.66,1.4-2.83,8.23Zm2.4-6.34L75.19,269l1.94,1.63Z"/><path class="cls-7" d="M78.92,274.37l1.42-.39a3.56,3.56,0,0,0,1.35,2.16c.86.64,1.61.66,2,.17s.09-1.09-.88-1.82l-1.32-1,.91-1.23,1.32,1c.77.58,1.48.78,1.84.3s0-1.21-.75-1.76a3.28,3.28,0,0,0-2.28-.64l0-1.39a4.34,4.34,0,0,1,3.37.9c1.52,1.13,2.07,2.6,1.26,3.68a2,2,0,0,1-2.52.44,2,2,0,0,1,.35,2.69c-.83,1.12-2.54,1.08-4.1-.08A4.43,4.43,0,0,1,78.92,274.37Z"/><path class="cls-7" d="M91.28,284.33l3.06-4.79-5,3.56-.64-.41,1.14-6-3.06,4.79-1.46-.93,4.38-6.84,2,1.3-1,5.2,4.31-3.07,2.05,1.31-4.38,6.84Z"/><path class="cls-7" d="M100.26,280.18l-1.35,2.55,1.83,1a2.62,2.62,0,1,1-2.45,4.62l-3.36-1.78,3.8-7.17Zm-2.06,3.89-1,1.94,1.62.86a1.1,1.1,0,1,0,1-1.94Zm3.1,5.85,3.8-7.18,1.54.82-3.8,7.17Z"/><path class="cls-7" d="M205.68,277l-3.11-7.49,3.94-1.64a2.1,2.1,0,0,1,3,1,1.81,1.81,0,0,1-.58,2.26,2,2,0,0,1,2.2,1.24,2.13,2.13,0,0,1-1.33,2.93Zm2.27-7.16a.87.87,0,0,0-1.22-.45l-2,.83.68,1.63,2-.84A.86.86,0,0,0,208,269.85Zm1.41,3a.94.94,0,0,0-1.33-.48l-2.05.86.72,1.74,2.06-.86A.91.91,0,0,0,209.36,272.85Z"/><path class="cls-7" d="M212.38,272.94l.3-1.44a3.55,3.55,0,0,0,2.54-.22c1-.47,1.32-1.13,1.06-1.68s-.93-.58-2-.05l-1.48.73-.67-1.36,1.47-.73c.86-.43,1.37-1,1.1-1.51s-1.08-.54-1.91-.13a3.26,3.26,0,0,0-1.6,1.73l-1.25-.59a4.31,4.31,0,0,1,2.33-2.59c1.7-.84,3.26-.66,3.85.55a2,2,0,0,1-.76,2.45,2,2,0,0,1,2.56.91c.62,1.25-.2,2.76-1.94,3.61A4.39,4.39,0,0,1,212.38,272.94Z"/><path class="cls-7" d="M219.23,269.29c.66-.52.9-1,0-3l-1.68-3.83,5-2.91,3.33,5.7.63-.37,1.53,2.61-1.5.87-.75-1.29-4.37,2.55.75,1.29-1.49.88Zm1.9-1.27,3.26-1.9-2.56-4.38L219.69,263l1.12,2.54A3.58,3.58,0,0,1,221.13,268Z"/><path class="cls-7" d="M227.58,265.46l-.25-1.52a1.69,1.69,0,0,0,1.12-.22c.49-.34.57-.69.49-1.37l-5.79-3.16,1.61-1.11,4.09,2.42-.77-4.7,1.62-1.1,1,7.3a2.71,2.71,0,0,1-1.23,2.9A2.91,2.91,0,0,1,227.58,265.46Z"/><path class="cls-7" d="M236.6,259.57l-4.07-5.19-1.86,1.46-.94-1.2,5.09-4,.94,1.2-1.86,1.45,4.07,5.2Z"/><path class="cls-7" d="M241,256.11l-5.43-6,1.28-1.15,3.51,3.89-.71-6.41,1.32-1.19,5.42,6-1.28,1.16-3.64-4,.77,6.63Z"/><path class="cls-7" d="M247.75,249.87l-5.83-5.65,4-4.13,1.09,1.06-2.8,2.88,1.24,1.2,2.74-2.83,1.09,1.06-2.74,2.83,1.32,1.28,2.8-2.89,1.09,1.06Z"/><path class="cls-7" d="M255,242.05,248.71,237l1.08-1.35,4.09,3.28-1.75-6.21,1.11-1.39,6.34,5.07-1.08,1.35-4.25-3.4,1.83,6.42Z"/><path class="cls-7" d="M268.19,96.57c.51.66,1,.89,3,0L275,94.87l2.95,5-5.67,3.38.37.62-2.6,1.55-.88-1.49,1.29-.76-2.59-4.36-1.29.77-.89-1.49Zm1.27,1.89,1.93,3.25,4.37-2.6L274.5,97,272,98.12A3.57,3.57,0,0,1,269.46,98.46Z"/><path class="cls-7" d="M271.75,105.4l7.26-3.64.77,1.54-4.69,2.36,6.38,1,.8,1.59L275,111.89l-.77-1.54,4.86-2.44-6.6-1Z"/><path class="cls-7" d="M279.21,111.33a4.13,4.13,0,0,1,5.54,2.37,3.72,3.72,0,0,1-.52,3.9L283,116.51a2.2,2.2,0,0,0,.36-2.22,2.67,2.67,0,0,0-4.92,2.06,2.18,2.18,0,0,0,1.82,1.31l-.09,1.64a3.73,3.73,0,0,1-3.15-2.36A4.13,4.13,0,0,1,279.21,111.33Z"/><path class="cls-7" d="M288.36,123.86l-1.44.49-1.37-4-1.36.47.69,2a2.58,2.58,0,1,1-4.88,1.68l-1.25-3.62,7.67-2.65Zm-5.61-2.51-2,.69.61,1.77a1.06,1.06,0,1,0,2-.69Z"/><path class="cls-7" d="M281.16,128l7.83-2.13.45,1.66-5.06,1.38,6.05,2.25.47,1.72L283.07,135l-.46-1.67,5.25-1.43-6.26-2.3Z"/><path class="cls-7" d="M287.32,135.28a4.24,4.24,0,1,1-3.32,5A4.07,4.07,0,0,1,287.32,135.28Zm1.28,6.58a2.47,2.47,0,1,0-3.09-1.91A2.46,2.46,0,0,0,288.6,141.86Z"/><path class="cls-7" d="M286.17,144.76l1.26.75a3.56,3.56,0,0,0-.62,2.47c.13,1.07.63,1.63,1.23,1.55s.86-.68.71-1.89l-.21-1.63,1.52-.19.2,1.63c.12,1,.47,1.61,1.07,1.54s.86-.85.74-1.77a3.25,3.25,0,0,0-1.11-2.08l1-1a4.3,4.3,0,0,1,1.69,3c.24,1.88-.45,3.3-1.79,3.47a2,2,0,0,1-2.05-1.53,2,2,0,0,1-1.7,2.12c-1.39.18-2.55-1.09-2.79-3A4.37,4.37,0,0,1,286.17,144.76Z"/></g></g></svg>